<svg width="27" height="27" viewBox="0 0 27 27" fill="none" xmlns="http://www.w3.org/2000/svg">
<path d="M20.7302 26.4317C20.4726 26.431 20.2158 26.4027 19.9642 26.3474C15.1745 25.3566 10.7619 23.0335 7.23433 19.6455C3.78198 16.25 1.3876 11.9268 0.340872 7.19895C0.217449 6.60972 0.247742 5.99864 0.428836 5.42451C0.609929 4.85037 0.935729 4.3325 1.37489 3.92073L4.43865 0.971858C4.59513 0.823869 4.78107 0.710542 4.98432 0.639274C5.18756 0.568005 5.40355 0.540397 5.61819 0.558251C5.84075 0.581469 6.05552 0.653161 6.24739 0.768286C6.43926 0.883411 6.60359 1.03917 6.72881 1.22462L10.5585 6.88491C10.7021 7.10454 10.7714 7.36447 10.7563 7.62644C10.7411 7.88842 10.6423 8.13861 10.4743 8.3402L8.55174 10.638C9.31741 12.3326 10.4018 13.8642 11.7457 15.1494C13.081 16.4812 14.6592 17.5446 16.395 18.2821L18.777 16.3902C18.9771 16.2321 19.2206 16.1386 19.475 16.1222C19.7295 16.1058 19.983 16.1672 20.2017 16.2983L25.9845 20.0361C26.183 20.1546 26.352 20.3164 26.479 20.5095C26.6061 20.7026 26.6877 20.922 26.7179 21.1511C26.7482 21.3803 26.7261 21.6133 26.6535 21.8327C26.5809 22.0521 26.4595 22.2523 26.2986 22.4182L23.3114 25.3747C22.9721 25.7123 22.5693 25.9796 22.1263 26.161C21.6834 26.3424 21.2089 26.4344 20.7302 26.4317V26.4317ZM5.49564 2.07481L2.43189 5.02368C2.18483 5.25388 2.00195 5.54442 1.90123 5.86673C1.80051 6.18904 1.78542 6.53202 1.85743 6.86193C2.83073 11.2984 5.06803 15.358 8.29898 18.5502C11.6187 21.7377 15.7712 23.9228 20.2783 24.8539C20.6194 24.9252 20.9729 24.9107 21.3071 24.8118C21.6413 24.7129 21.9458 24.5326 22.1931 24.2871L25.1803 21.3305L19.5966 17.723L17.0384 19.7604C16.9404 19.8379 16.825 19.8903 16.7022 19.9129C16.5794 19.9356 16.4529 19.928 16.3337 19.8906C14.2095 19.1079 12.2845 17.8656 10.6964 16.2523C9.0537 14.7183 7.77862 12.8332 6.96625 10.7376C6.93188 10.6107 6.93074 10.4771 6.96293 10.3497C6.99513 10.2223 7.05957 10.1053 7.15007 10.0099L9.21811 7.53596L5.49564 2.07481Z" fill="black"/>
</svg>
