<svg width="836" height="920" viewBox="0 0 836 920" fill="none" xmlns="http://www.w3.org/2000/svg">
<g filter="url(#filter0_d)">
<rect x="176" y="102" width="480" height="618" rx="28" fill="white"/>
</g>
<circle cx="252" cy="198" r="26" fill="#F0F0F0"/>
<rect x="313" y="173" width="261" height="16" rx="8" fill="#F0F0F0"/>
<rect x="313" y="208" width="171" height="16" rx="8" fill="#F0F0F0"/>
<circle cx="252" cy="303" r="26" fill="#F0F0F0"/>
<rect x="313" y="278" width="226" height="16" rx="8" fill="#F0F0F0"/>
<rect x="313" y="313" width="112" height="16" rx="8" fill="#F0F0F0"/>
<circle cx="252" cy="513" r="26" fill="#F0F0F0"/>
<rect x="313" y="488" width="215" height="16" rx="8" fill="#F0F0F0"/>
<rect x="313" y="523" width="135" height="16" rx="8" fill="#F0F0F0"/>
<circle cx="252" cy="408" r="26" fill="#F0F0F0"/>
<rect x="313" y="383" width="261" height="16" rx="8" fill="#F0F0F0"/>
<rect x="313" y="418" width="147" height="16" rx="8" fill="#F0F0F0"/>
<ellipse cx="252.523" cy="618" rx="26.523" ry="26" fill="#F0F0F0"/>
<rect x="315" y="593" width="169" height="16" rx="8" fill="#F0F0F0"/>
<rect x="315" y="628" width="133" height="16" rx="8" fill="#F0F0F0"/>
<defs>
<filter id="filter0_d" x="0" y="0" width="848" height="986" filterUnits="userSpaceOnUse" color-interpolation-filters="sRGB">
<feFlood flood-opacity="0" result="BackgroundImageFix"/>
<feColorMatrix in="SourceAlpha" type="matrix" values="0 0 0 0 0 0 0 0 0 0 0 0 0 0 0 0 0 0 127 0" result="hardAlpha"/>
<feMorphology radius="12" operator="erode" in="SourceAlpha" result="effect1_dropShadow"/>
<feOffset dx="8" dy="82"/>
<feGaussianBlur stdDeviation="98"/>
<feComposite in2="hardAlpha" operator="out"/>
<feColorMatrix type="matrix" values="0 0 0 0 0 0 0 0 0 0 0 0 0 0 0 0 0 0 0.12 0"/>
<feBlend mode="normal" in2="BackgroundImageFix" result="effect1_dropShadow"/>
<feBlend mode="normal" in="SourceGraphic" in2="effect1_dropShadow" result="shape"/>
</filter>
</defs>
</svg>
